<?xml version="1.0" standalone="no"?>
<!DOCTYPE svg PUBLIC "-//W3C//DTD SVG 20010904//EN"
 "http://www.w3.org/TR/2001/REC-SVG-20010904/DTD/svg10.dtd">
<svg version="1.0" xmlns="http://www.w3.org/2000/svg"
 width="59.000000pt" height="58.000000pt" viewBox="0 0 59.000000 58.000000"
 preserveAspectRatio="xMidYMid meet">

<g transform="translate(0.000000,58.000000) scale(0.100000,-0.100000)"
fill="#000000" stroke="none">
<path d="M1 453 c0 -122 1 -126 13 -81 13 49 21 63 70 116 33 36 92 71 141 83
18 4 -21 7 -97 8 l-128 1 1 -127z"/>
<path d="M381 566 c86 -23 163 -96 195 -183 12 -36 13 -31 14 80 l0 117 -127
-1 c-120 0 -125 -1 -82 -13z"/>
<path d="M237 553 c-10 -9 -7 -84 3 -108 8 -19 9 -19 9 2 1 12 8 26 17 31 15
8 15 10 0 15 -10 4 -15 3 -11 -3 3 -6 1 -10 -4 -10 -6 0 -11 16 -11 35 0 23 5
35 14 35 17 0 66 -39 50 -40 -6 0 -17 7 -24 15 -16 19 -30 19 -30 0 0 -8 9
-19 20 -25 10 -6 17 -16 14 -24 -3 -7 2 -16 12 -20 12 -5 15 -2 10 9 -4 11 -2
14 6 9 8 -5 9 -1 5 12 -5 14 -2 12 13 -6 11 -14 20 -29 20 -34 0 -6 -7 -1 -16
10 -15 18 -15 18 -10 -4 4 -19 -2 -26 -27 -37 -24 -10 -34 -10 -39 -2 -20 31
-5 -12 17 -49 18 -30 23 -52 20 -76 l-5 -33 10 33 c6 18 15 30 20 27 6 -4 10
-1 10 4 0 6 -7 11 -15 11 -8 0 -15 5 -15 11 0 5 5 7 12 3 7 -4 8 -3 4 5 -4 6
-12 8 -18 5 -8 -5 -9 -1 -5 10 4 9 3 14 -2 11 -5 -3 -12 -1 -15 4 -7 11 17 21
31 13 10 -7 26 -40 27 -57 1 -5 10 -11 21 -11 11 -1 37 -8 57 -17 20 -8 39
-12 43 -9 4 4 6 2 5 -3 -5 -22 1 -29 11 -15 10 13 10 13 6 -1 -3 -8 1 -26 9
-40 8 -15 14 -18 14 -9 0 8 7 0 15 -19 18 -40 18 -38 0 -38 -8 0 -12 4 -10 8
7 10 -16 26 -48 34 -26 7 -27 9 -12 25 14 15 13 18 -5 35 -19 17 -20 17 -26
-1 -4 -11 -9 -22 -11 -26 -2 -4 3 -5 12 -2 11 4 14 2 9 -9 -3 -9 -12 -18 -20
-21 -10 -4 -13 -15 -9 -37 4 -19 2 -28 -5 -24 -5 3 -10 2 -10 -3 0 -15 -40 -9
-50 8 -5 8 -13 11 -17 6 -4 -4 1 -14 12 -22 21 -16 77 -12 83 6 4 11 26 -8 35
-30 3 -9 6 -10 6 -2 1 7 14 12 31 12 20 0 30 5 30 15 0 8 5 15 11 15 5 0 7 -5
4 -10 -3 -6 -3 -10 1 -10 9 0 33 32 34 45 0 6 -5 3 -10 -5 -7 -12 -10 -8 -10
14 0 16 -7 38 -17 48 -9 10 -12 18 -6 18 5 0 16 -11 23 -25 7 -14 15 -23 17
-21 3 2 -12 29 -32 58 -33 51 -84 88 -120 88 -7 0 -21 7 -29 16 -14 13 -16 13
-16 1 0 -9 6 -18 13 -20 7 -3 5 -6 -5 -6 -15 -1 -18 7 -17 42 0 32 2 37 9 22
5 -12 9 -14 9 -6 2 26 -40 100 -71 126 -30 25 -49 31 -61 18z m187 -212 c4 -5
-3 -7 -14 -4 -23 6 -26 13 -6 13 8 0 17 -4 20 -9z m70 -40 c31 -35 14 -29 -24
8 -19 19 -26 29 -15 24 11 -6 29 -21 39 -32z m-8 -135 c10 -8 15 -18 11 -23
-5 -4 -13 0 -18 9 -5 10 -16 15 -23 12 -8 -3 -17 -1 -21 5 -9 16 28 13 51 -3z"/>
<path d="M323 303 c-7 -2 -13 -17 -13 -32 0 -20 -5 -27 -20 -28 -11 -1 -18 2
-15 8 4 5 -4 9 -17 9 -18 0 -20 -2 -8 -10 25 -16 -9 -12 -45 6 l-30 14 30 -5
c22 -4 26 -3 15 5 -37 24 -176 6 -210 -28 -8 -8 -9 -12 -2 -8 8 5 12 -1 11
-21 0 -25 -1 -26 -9 -8 -6 13 -9 -20 -9 -92 l-1 -113 128 0 c75 0 121 4 113 9
-8 5 -9 11 -3 15 6 4 15 -2 21 -11 10 -17 10 -17 11 0 0 10 -8 20 -17 24 -26
9 -53 34 -47 44 5 9 -38 33 -79 43 -15 4 -25 11 -22 16 3 5 1 11 -4 14 -5 4
-8 -1 -7 -10 1 -8 8 -19 15 -24 9 -5 10 -10 3 -14 -13 -8 -5 -36 10 -36 5 0 6
4 3 10 -3 6 1 7 10 4 8 -4 22 -1 30 6 8 7 15 8 15 3 0 -6 9 -20 20 -33 29 -34
26 -54 -7 -45 -73 18 -184 136 -167 178 6 18 29 23 111 26 67 2 85 -9 52 -32
-11 -8 -16 -18 -11 -21 6 -3 12 1 16 9 3 8 13 15 21 15 9 0 14 4 11 9 -3 5 5
9 19 9 14 0 22 -4 19 -9 -3 -5 -12 -9 -20 -9 -8 0 -14 -7 -14 -16 0 -10 -5
-14 -16 -10 -8 3 -12 2 -9 -4 3 -6 2 -10 -4 -10 -6 0 -7 -8 -4 -17 6 -16 5
-16 -10 -4 -9 7 -17 9 -17 3 0 -21 27 -19 49 4 17 17 27 21 36 14 6 -5 14 -8
17 -5 9 9 31 -24 33 -50 2 -18 -2 -23 -15 -22 -14 1 -16 5 -9 13 16 19 -18 47
-42 34 -24 -13 -24 -19 2 -50 l20 -25 -6 25 c-5 21 -4 22 5 7 6 -9 15 -15 20
-12 5 3 11 1 15 -5 3 -5 -1 -10 -10 -10 -12 0 -15 -5 -11 -16 3 -9 6 -19 6
-24 0 -4 15 -8 34 -7 19 0 34 3 34 6 -1 4 4 19 11 35 11 28 10 31 -19 54 -16
13 -30 30 -30 37 0 8 -8 19 -17 24 -17 10 -17 10 -1 11 24 0 32 18 16 38 -12
15 -11 16 5 3 9 -7 17 -9 17 -3 0 14 38 22 43 9 2 -6 9 -7 17 -2 10 6 8 10 -8
16 -12 5 -29 6 -37 3 -23 -9 -29 23 -11 51 16 24 14 28 -11 18z m-198 -43
c-28 -4 -62 -10 -75 -14 -20 -5 -19 -3 5 9 17 8 50 14 75 13 l45 0 -50 -8z
m-1 -19 c3 -5 -12 -11 -34 -13 -42 -4 -42 7 0 15 14 2 26 5 27 6 1 0 4 -3 7
-8z m90 -10 c4 -5 -3 -7 -14 -4 -23 6 -26 13 -6 13 8 0 17 -4 20 -9z m-54
-125 c0 -2 -11 -6 -25 -8 -13 -3 -22 -1 -19 3 5 9 44 13 44 5z m174 -49 c3
-20 0 -30 -16 -38 -25 -13 -36 -3 -20 19 7 9 15 25 19 35 7 22 10 19 17 -16z"/>
<path d="M393 285 c-3 -9 -3 -19 1 -22 3 -4 6 1 6 10 0 8 6 18 13 20 9 4 9 6
-1 6 -7 1 -15 -6 -19 -14z"/>
<path d="M576 200 c-13 -68 -96 -156 -174 -185 -35 -13 -32 -14 76 -14 l112
-1 0 115 c0 63 -2 115 -4 115 -2 0 -6 -14 -10 -30z"/>
<path d="M138 203 c-27 -3 -38 -9 -38 -21 0 -12 3 -13 12 -4 7 7 25 12 40 12
15 0 28 5 28 10 0 6 -1 9 -2 8 -2 -1 -20 -3 -40 -5z"/>
<path d="M340 186 c0 -8 4 -17 9 -20 11 -7 33 18 24 27 -12 12 -33 7 -33 -7z"/>
<path d="M49 173 c-13 -16 -12 -17 4 -4 9 7 17 15 17 17 0 8 -8 3 -21 -13z"/>
<path d="M58 143 c7 -3 16 -2 19 1 4 3 -2 6 -13 5 -11 0 -14 -3 -6 -6z"/>
<path d="M388 128 c-16 -5 -28 -14 -28 -19 0 -5 9 -4 19 3 25 15 48 -2 54 -40
2 -15 3 -10 1 12 -3 48 -12 56 -46 44z"/>
<path d="M385 97 c-4 -10 -5 -21 -1 -24 10 -10 18 4 13 24 -4 17 -4 17 -12 0z"/>
<path d="M452 70 c0 -14 2 -19 5 -12 2 6 2 18 0 25 -3 6 -5 1 -5 -13z"/>
<path d="M138 63 c7 -3 16 -2 19 1 4 3 -2 6 -13 5 -11 0 -14 -3 -6 -6z"/>
<path d="M154 41 c4 -5 13 -8 21 -7 25 4 25 12 -1 14 -14 1 -23 -2 -20 -7z"/>
<path d="M375 39 c-10 -15 3 -25 16 -12 7 7 7 13 1 17 -6 3 -14 1 -17 -5z"/>
</g>
</svg>
